<svg xmlns="http://www.w3.org/2000/svg" width="338" height="259" viewBox="0 0 338 259">
  <g id="Polygon_1" data-name="Polygon 1" fill="#b5a4a4">
    <path d="M 295.5289916992188 258.5 L 42.47100067138672 258.5 C 40.29299926757813 258.5 38.15876770019531 258.2034606933594 36.12749862670898 257.61865234375 C 34.18484497070313 257.059326171875 32.33015441894531 256.2351989746094 30.61492347717285 255.1691131591797 C 27.31092262268066 253.1155395507813 24.56915473937988 250.1919860839844 22.68596076965332 246.7145690917969 C 20.80276870727539 243.2371063232422 19.85261535644531 239.3433074951172 19.93830680847168 235.4540252685547 C 19.98276901245117 233.4349975585938 20.30607604980469 231.4313354492188 20.89926910400391 229.4987182617188 C 21.51950073242188 227.47802734375 22.43746185302734 225.528564453125 23.62765312194824 223.7045288085938 L 150.1566162109375 29.7932243347168 C 152.3069305419922 26.49783897399902 155.1279296875 23.92280197143555 158.5412750244141 22.13968658447266 C 161.7359161376953 20.47084045410156 165.3524932861328 19.58872413635254 169 19.58872413635254 C 172.6474609375 19.58872413635254 176.2640380859375 20.47084045410156 179.4586944580078 22.13968658447266 C 182.8720397949219 23.92280197143555 185.6930389404297 26.49783897399902 187.8433532714844 29.7932243347168 L 314.3723449707031 223.7045288085938 C 315.5625305175781 225.528564453125 316.4804992675781 227.4779968261719 317.1007385253906 229.4987182617188 C 317.6939086914063 231.4313049316406 318.0172424316406 233.4349517822266 318.0617370605469 235.4540252685547 C 318.1473693847656 239.34326171875 317.197265625 243.2370758056641 315.3140869140625 246.7145385742188 C 313.4308776855469 250.1919555664063 310.6890869140625 253.1154937744141 307.3851013183594 255.1691131591797 C 305.6698913574219 256.2351989746094 303.8151550292969 257.059326171875 301.8724975585938 257.61865234375 C 299.8412780761719 258.2034606933594 297.7070007324219 258.5 295.5289916992188 258.5 Z" stroke="none"/>
    <path d="M 169 20.08866882324219 C 165.4327850341797 20.08866882324219 161.8962860107422 20.95114135742188 158.7727966308594 22.58283996582031 C 155.4362945556641 24.32583618164063 152.6782989501953 26.84367370605469 150.5754241943359 30.06646728515625 L 24.04641723632813 223.9777526855469 C 22.88180541992188 225.7625885009766 21.9837646484375 227.6694641113281 21.37725830078125 229.6454315185547 C 20.79757690429688 231.5340118408203 20.48162841796875 233.4920043945313 20.43817138671875 235.4650115966797 C 20.35443115234375 239.2675476074219 21.28372192382813 243.0752258300781 23.12557983398438 246.4764251708984 C 24.96746826171875 249.8775939941406 27.64849853515625 252.7366333007813 30.87884521484375 254.7444305419922 C 32.55496215820313 255.7862548828125 34.367431640625 256.5915832519531 36.26583862304688 257.13818359375 C 38.2520751953125 257.7100524902344 40.33984375 258 42.47100830078125 258 L 295.5289916992188 258 C 297.66015625 258 299.7478637695313 257.7100524902344 301.7341613769531 257.13818359375 C 303.632568359375 256.5916442871094 305.4450073242188 255.7862548828125 307.1211242675781 254.7444763183594 C 310.3514709472656 252.7366333007813 313.0325012207031 249.8776397705078 314.8743896484375 246.4764251708984 C 316.7162780761719 243.0752563476563 317.6455688476563 239.2675933837891 317.5618286132813 235.4650573730469 C 317.5183715820313 233.4920043945313 317.2024230957031 231.5340118408203 316.6227416992188 229.6454315185547 C 316.0162353515625 227.6694641113281 315.1181945800781 225.7625885009766 313.9535827636719 223.9777526855469 L 187.4245758056641 30.06646728515625 C 185.3217010498047 26.84367370605469 182.5636596679688 24.32583618164063 179.2272033691406 22.58283996582031 C 176.1036682128906 20.95114135742188 172.5671691894531 20.08866882324219 169 20.08866882324219 M 168.9999847412109 19.08869934082031 C 176.3621826171875 19.08869934082031 183.7243957519531 22.5657958984375 188.2620849609375 29.52000427246094 L 314.7910766601563 223.4313049316406 C 324.7735290527344 238.7298889160156 313.79638671875 259 295.5289916992188 259 L 42.47100830078125 259 C 24.20361328125 259 13.22640991210938 238.7298889160156 23.20892333984375 223.4313049316406 L 149.7379150390625 29.52000427246094 C 154.2755889892578 22.5657958984375 161.6377868652344 19.08869934082031 168.9999847412109 19.08869934082031 Z" stroke="none" fill="#707070"/>
  </g>
</svg>
